<svg width="39" height="30" viewBox="0 0 39 30" fill="none" xmlns="http://www.w3.org/2000/svg">
    <path
        d="M14.082 8.88C14.7754 8.88 15.442 9.13333 16.082 9.64C16.7487 10.12 17.082 10.6267 17.082 11.16C17.082 12.12 16.282 14.3467 14.682 17.84C13.1087 21.3333 11.642 24.1467 10.282 26.28C8.9487 28.4133 7.9087 29.48 7.16203 29.48C6.76203 29.48 6.17536 29.2133 5.40203 28.68C4.65536 28.1467 4.17536 27.6133 3.96203 27.08C3.32203 25.5333 2.5487 22.68 1.64203 18.52C0.735365 14.3333 0.282031 11.68 0.282031 10.56C0.282031 9.44 0.655365 8.88 1.40203 8.88C2.3087 8.88 3.24203 9.24 4.20203 9.96C5.80203 11.1867 6.69536 12.8267 6.88203 14.88C6.96203 15.84 7.0287 17.0267 7.08203 18.44C7.13536 19.8267 7.25536 21.0267 7.44203 22.04C8.08203 20.8133 8.8687 19 9.80203 16.6C10.7354 14.1733 11.5354 12.28 12.202 10.92C12.8954 9.56 13.522 8.88 14.082 8.88ZM38.557 19.6C38.557 21.2533 37.637 22.88 35.797 24.48C33.9837 26.08 31.7704 27.36 29.157 28.32C26.5704 29.2533 24.1037 29.72 21.757 29.72C20.7437 29.72 19.557 29.1067 18.197 27.88C16.837 26.6267 16.157 25.6 16.157 24.8C16.157 24.3467 16.2504 23.9867 16.437 23.72C16.6504 23.4533 16.8904 23.32 17.157 23.32C17.4237 23.32 18.0104 23.5467 18.917 24C19.8504 24.4267 20.5437 24.64 20.997 24.64C21.477 24.64 21.9437 24.6 22.397 24.52C21.7304 24.2533 21.0637 23.7867 20.397 23.12C19.7304 22.4533 19.397 21.8133 19.397 21.2C19.397 20.9333 19.837 19 20.717 15.4C21.597 11.7733 22.0637 8.68 22.117 6.12C21.637 5.66667 21.197 5.12 20.797 4.48C20.4237 3.81333 20.237 3.32 20.237 3C20.237 2.25333 20.8237 1.65333 21.997 1.2C23.1704 0.746665 24.637 0.519998 26.397 0.519998C30.1304 0.519998 33.117 1.01333 35.357 2C37.6237 2.98666 38.757 4.56 38.757 6.72C38.757 8.08 38.1837 9.46667 37.037 10.88C35.8904 12.2933 34.3837 13.5867 32.517 14.76L32.917 14.88C34.517 15.3067 35.8504 15.9467 36.917 16.8C38.0104 17.6267 38.557 18.56 38.557 19.6ZM31.477 5.64C30.6504 5.64 28.7037 5.93333 25.637 6.52C26.597 7.58667 27.077 8.48 27.077 9.2C27.077 9.89333 26.8504 11.1867 26.397 13.08C26.8237 12.76 27.5837 12.2933 28.677 11.68C29.7704 11.0667 30.4504 10.6667 30.717 10.48C31.0104 10.2667 31.397 9.96 31.877 9.56C32.7837 8.84 33.237 8.01333 33.237 7.08C33.237 6.12 32.6504 5.64 31.477 5.64ZM33.517 19.44C33.517 18.9067 32.7437 18.4533 31.197 18.08C29.677 17.68 28.4104 17.48 27.397 17.48C26.837 17.48 26.237 17.0667 25.597 16.24C24.397 21.1733 23.677 23.88 23.437 24.36C25.677 23.88 27.917 23.1467 30.157 22.16C32.397 21.1733 33.517 20.2667 33.517 19.44Z"
        fill="white" />
</svg>
